<svg width="100" height="100" viewBox="0 0 100 100" fill="none" xmlns="http://www.w3.org/2000/svg">
<path d="M97.7985 38.9771C99.2288 44.9618 92.6078 51.1969 91.685 56.9086C90.7622 62.6203 94.961 70.7897 91.8465 75.8187C88.732 80.8477 79.6191 80.7794 74.7282 84.3293C69.8374 87.8792 67.3458 96.3899 61.3014 97.8008C55.2569 99.2116 48.9588 92.7035 43.1913 91.7477C37.4237 90.792 29.1415 94.888 24.066 91.7477C18.9906 88.6074 19.2444 79.6644 15.7146 74.7719C12.1849 69.8794 3.60276 67.4218 2.19548 61.437C0.788194 55.4522 7.40936 49.2399 8.33217 43.5282C9.25498 37.8165 5.03309 29.6472 8.14757 24.6182C11.2621 19.5892 20.3748 19.6347 25.2657 16.1075C30.1566 12.5804 32.6482 4.04693 38.7156 2.61332C44.7831 1.1797 51.0351 7.7334 56.8027 8.68914C62.5703 9.64488 70.8756 5.54884 75.9279 8.68914C80.9803 11.8294 80.7496 20.7724 84.2794 25.6649C87.8091 30.5574 96.3912 33.0151 97.7985 38.9771Z" stroke="#1770FF" stroke-width="3" stroke-miterlimit="10"/>
<path d="M49.5856 91.1816C72.5098 91.1816 91.0935 72.8354 91.0935 50.2043C91.0935 27.5732 72.5098 9.22705 49.5856 9.22705C26.6614 9.22705 8.07767 27.5732 8.07767 50.2043C8.07767 72.8354 26.6614 91.1816 49.5856 91.1816Z" fill="#1770FF" stroke="#1770FF" stroke-width="3" stroke-miterlimit="10"/>
<path d="M11.6858 35.2448C11.8697 33.6731 11.8007 32.1014 11.8927 30.507C11.8927 29.7173 11.9616 28.92 12.0996 28.1152C12.0882 27.9408 12.0882 27.7658 12.0996 27.5914C12.0996 27.4319 12.0996 27.4319 12.0996 27.5914V27.3408C12.1318 27.1777 12.178 27.0177 12.2375 26.8624C12.1226 27.113 12.2375 26.8624 12.3985 26.6574C12.5005 26.4834 12.624 26.3227 12.7663 26.1791L13.1801 25.7463C13.1801 25.7463 13.3641 25.4502 13.1801 25.6096H13.341C13.1341 25.6096 13.1111 25.7235 13.341 25.6096C13.5052 25.5668 13.6665 25.5136 13.8239 25.4502C14.2377 25.3363 14.6285 25.1997 15.0423 25.1086C15.8526 24.9631 16.6307 24.6778 17.3414 24.2657C18.0541 23.8101 18.7438 23.3318 19.4335 22.8535C19.7266 22.7222 19.9887 22.5314 20.2027 22.2935C20.4168 22.0556 20.5781 21.7759 20.6762 21.4724C20.7743 21.1688 20.807 20.8482 20.7722 20.5314C20.7374 20.2145 20.6359 19.9085 20.4742 19.6329C20.3125 19.3574 20.0943 19.1185 19.8336 18.9318C19.5729 18.7451 19.2755 18.6147 18.9607 18.5489C18.6459 18.4832 18.3207 18.4837 18.0062 18.5503C17.6916 18.6169 17.3946 18.7482 17.1345 18.9356C15.3426 20.0344 13.7815 21.4652 12.5364 23.1496C12.0306 23.8557 11.5938 24.6074 11.157 25.4274C10.7202 26.2474 10.6742 26.2246 10.4213 26.6346L10.0305 27.2041C9.77758 27.5685 10.0304 27.2041 9.8235 27.4774C9.60914 27.6883 9.43885 27.939 9.32227 28.2151C9.20568 28.4912 9.14512 28.7874 9.14406 29.0867C9.14299 29.3859 9.20141 29.6825 9.31602 29.9594C9.43064 30.2363 9.59921 30.4882 9.81206 30.7005C10.0249 30.9129 10.2779 31.0817 10.5565 31.1972C10.8352 31.3127 11.1341 31.3727 11.4362 31.3738C11.7383 31.3748 12.0377 31.3169 12.3172 31.2033C12.5966 31.0898 12.8508 30.9228 13.0651 30.7119C14.1657 29.2535 15.1791 27.7323 16.0999 26.1563C16.3298 25.8147 16.5367 25.4957 16.7666 25.1996C16.5597 25.4729 17.0195 24.9263 16.9965 24.9491L17.5023 24.4252L17.9851 24.0152L18.238 23.8329L19.5025 22.9674L17.2034 19.0496C16.4677 19.5279 15.7321 20.0062 14.9044 20.5073L14.6745 20.644H14.1227C13.6639 20.7489 13.2111 20.8782 12.7663 21.0312C11.8204 21.2546 10.9392 21.6911 10.1913 22.3068C9.51548 22.9296 8.92082 23.6335 8.42112 24.4024C7.57624 26.1162 7.16592 28.0083 7.22565 29.9147C7.08771 31.7142 7.22561 33.5136 6.97272 35.3131C6.97272 35.9172 7.21497 36.4966 7.64612 36.9238C8.07727 37.351 8.66201 37.5909 9.27175 37.5909C9.88149 37.5909 10.4663 37.351 10.8974 36.9238C11.3286 36.4966 11.5708 35.9172 11.5708 35.3131L11.6858 35.2448Z" fill="#1770FF"/>
<path d="M51.2807 5.82095C49.5845 4.72186 47.7563 3.83785 45.8387 3.18969C43.9492 2.29765 41.8625 1.89619 39.774 2.02285C37.8111 2.5615 36.0636 3.68815 34.7701 5.24895L30.0197 9.82497C29.8062 10.0383 29.6372 10.2912 29.5222 10.5694C29.4073 10.8475 29.3486 11.1455 29.3497 11.4461C29.3508 11.7467 29.4116 12.0442 29.5285 12.3216C29.6454 12.5989 29.8162 12.8506 30.0312 13.0625C30.2462 13.2743 30.5012 13.4421 30.7816 13.5561C31.0619 13.6702 31.3622 13.7283 31.6651 13.7273C31.9681 13.7262 32.2679 13.6659 32.5474 13.5499C32.8269 13.4339 33.0807 13.2643 33.2942 13.051C35.0548 11.7635 36.9773 10.7097 39.013 9.91644C39.828 9.49364 40.7239 9.24659 41.6418 9.19139C42.5598 9.13618 43.4793 9.27411 44.3398 9.59616C44.6016 9.74839 44.8911 9.84781 45.1917 9.88879C45.4923 9.92978 45.7982 9.91148 46.0917 9.83496C46.3852 9.75844 46.6606 9.62522 46.902 9.44289C47.1435 9.26056 47.3464 9.03271 47.4989 8.77244C47.6524 8.51266 47.7526 8.22543 47.7939 7.92714C47.8352 7.62885 47.8167 7.32536 47.7396 7.03416C47.6625 6.74295 47.5282 6.46973 47.3445 6.23013C47.1607 5.99052 46.9311 5.78926 46.6688 5.63787C45.2949 4.99446 43.7984 4.64937 42.2794 4.6257C40.7603 4.60202 39.2536 4.90031 37.86 5.5006C35.0456 6.54965 32.4034 8.00697 30.0197 9.82497L33.2942 13.051L37.3988 9.09279C38.2751 8.24623 39.405 6.66747 40.6963 6.48443C41.3083 6.49588 41.912 6.62813 42.472 6.87342L44.6165 7.6056C46.1459 8.14135 47.6021 8.86381 48.9517 9.75634C49.2135 9.90856 49.503 10.008 49.8036 10.049C50.1043 10.09 50.4101 10.0717 50.7036 9.99514C50.9971 9.91862 51.2725 9.7854 51.514 9.60307C51.7555 9.42074 51.9583 9.19288 52.1109 8.93262C52.4134 8.41001 52.4959 7.79009 52.3405 7.20746C52.1851 6.62483 51.8042 6.12659 51.2807 5.82095V5.82095Z" fill="#1770FF"/>
<path d="M62.2597 11.9343C65.6645 12.5752 69.1612 13.0559 72.543 13.4451C72.8451 13.4857 73.1524 13.4667 73.4471 13.3891C73.7419 13.3116 74.0182 13.177 74.2607 12.9932C74.5032 12.8093 74.707 12.5797 74.8603 12.3175C75.0135 12.0553 75.1134 11.7657 75.1541 11.465C75.1949 11.1644 75.1758 10.8587 75.0978 10.5655C75.0199 10.2722 74.8847 9.99717 74.6999 9.75591C74.5151 9.51465 74.2845 9.31193 74.021 9.1594C73.7575 9.00687 73.4663 8.90749 73.1642 8.8669C72.688 8.79502 72.2373 8.60623 71.8529 8.31754L71.3008 12.5066C71.1167 12.5066 71.1397 12.5066 71.3008 12.5066L71.8759 12.8271C72.3166 13.0662 72.7262 13.3583 73.0953 13.6969C73.4207 14.0192 73.8355 14.2371 74.2865 14.3228C74.7375 14.4084 75.2039 14.3579 75.6258 14.1776C76.0416 14.0024 76.3964 13.7092 76.6459 13.3347C76.8954 12.9602 77.0287 12.5209 77.0291 12.0716V11.3849L73.0953 12.9872C74.1671 14.0353 74.9581 15.3339 75.3958 16.7643C76.1423 18.5332 77.1333 20.1898 78.3404 21.6858L81.6071 18.4582C80.963 17.9546 80.4799 17.0619 79.7437 16.398C79.0075 15.7342 78.0874 14.9559 77.2592 14.2463C76.431 13.5367 75.6027 12.8041 74.7055 12.1632C74.3133 11.884 73.8977 11.6389 73.4633 11.4307L72.5201 11.0416C72.3821 11.0416 71.8069 10.6066 72.175 10.8813L73.0031 11.7054V13.9944C73.1696 13.7339 73.2814 13.4426 73.3317 13.1379C73.3821 12.8333 73.37 12.5217 73.2962 12.2218C73.2224 11.9219 73.0883 11.6401 72.9022 11.3931C72.716 11.1461 72.4817 10.9391 72.213 10.7846C71.9444 10.6301 71.6471 10.5313 71.3391 10.494C71.0311 10.4568 70.7188 10.482 70.4208 10.568C70.1228 10.654 69.8453 10.7991 69.6051 10.9946C69.365 11.19 69.1671 11.4318 69.0233 11.7054C68.8213 12.0533 68.715 12.4481 68.715 12.8499C68.715 13.2517 68.8213 13.6465 69.0233 13.9944C69.5524 15.0245 70.7026 15.2077 71.5538 15.6655C72.3868 16.1799 73.1586 16.7866 73.8543 17.4739C74.6825 18.1835 75.5338 18.8703 76.362 19.6257C77.1902 20.3811 77.5352 21.1594 78.3174 21.7774C78.5312 21.992 78.7857 22.1622 79.0661 22.2784C79.3464 22.3947 79.6471 22.4545 79.9508 22.4545C80.2545 22.4545 80.5552 22.3947 80.8356 22.2784C81.1159 22.1622 81.3702 21.992 81.5841 21.7774C82.0126 21.3485 82.2532 20.7683 82.2532 20.1636C82.2532 19.5588 82.0126 18.9787 81.5841 18.5498C79.3986 15.8944 79.0535 12.0716 76.2699 9.8512C75.9464 9.53357 75.5355 9.31844 75.0893 9.23289C74.643 9.14733 74.1813 9.19521 73.7624 9.37051C73.3422 9.54223 72.9826 9.83389 72.7288 10.2087C72.4749 10.5834 72.3383 11.0246 72.336 11.4765V12.1632L76.2699 10.538C74.7055 9.16451 72.083 7.28746 69.8975 8.11153C69.4594 8.22984 69.0662 8.47444 68.7676 8.81458C68.4689 9.15472 68.278 9.5752 68.219 10.023C68.1599 10.4709 68.2355 10.9261 68.4359 11.3313C68.6363 11.7366 68.9527 12.0738 69.3454 12.3005C70.0339 12.791 70.8173 13.134 71.6459 13.3077L72.267 8.72956C69.2302 8.3862 66.2165 7.92841 63.2028 7.40192C62.6171 7.23974 61.9908 7.31483 61.4606 7.61079C60.9303 7.90675 60.5394 8.39945 60.3732 8.98133C60.2929 9.27142 60.2708 9.57443 60.3083 9.87299C60.3458 10.1716 60.4421 10.4598 60.5917 10.7213C60.7413 10.9828 60.9412 11.2124 61.18 11.397C61.4188 11.5816 61.692 11.7175 61.9836 11.7969L62.2597 11.9343Z" fill="#1770FF"/>
<path d="M85.8648 32.1314C86.8631 33.6949 88.0792 35.1117 89.477 36.3399C90.7948 37.3543 91.7663 38.7437 92.2609 40.3209C92.6393 41.6853 92.5087 43.1387 91.8928 44.4157C91.4238 45.1801 91.0308 45.9876 90.7194 46.827C90.6141 47.5255 90.4368 48.2115 90.1903 48.8744L94.4007 50.6261C95.9652 45.6669 94.6538 41.0034 92.7671 36.3399C92.6872 36.0515 92.5506 35.7815 92.3651 35.5454C92.1796 35.3092 91.9488 35.1115 91.686 34.9636C91.4231 34.8157 91.1334 34.7205 90.8333 34.6834C90.5332 34.6463 90.2288 34.6681 89.9372 34.7475C89.6455 34.8265 89.3724 34.9615 89.1335 35.1449C88.8947 35.3284 88.6947 35.5565 88.5451 35.8164C88.3955 36.0763 88.2993 36.3628 88.2617 36.6595C88.2242 36.9562 88.2463 37.2573 88.3266 37.5456C89.2013 39.5411 89.8869 41.6125 90.3744 43.7332C90.7102 45.6338 90.5678 47.5869 89.9601 49.4204C89.8062 49.9549 89.8555 50.5267 90.0988 51.0278C90.3421 51.5289 90.7625 51.9245 91.2807 52.14C91.7988 52.3556 92.3789 52.3761 92.9113 52.1978C93.4437 52.0194 93.8916 51.6546 94.1706 51.172C94.599 50.3106 94.8938 49.3904 95.0449 48.4422C95.3055 47.6996 95.653 46.9895 96.0802 46.3265C97.0102 44.2638 97.2675 41.9661 96.8165 39.7522C96.455 37.6597 95.4224 35.7376 93.8714 34.2698C92.3262 32.9414 90.9716 31.4107 89.8451 29.7201C88.4186 27.1495 84.4613 29.4243 85.8648 31.9949V32.1314Z" fill="#1770FF"/>
<path d="M88.2444 62.7144C88.1865 63.7181 88.1865 64.7242 88.2444 65.7279C88.3949 66.6351 88.3949 67.5603 88.2444 68.4674C87.9834 69.39 87.7821 70.3278 87.6415 71.2754C87.5919 71.904 87.4673 72.5246 87.2704 73.1245C87.0154 73.7181 86.6213 73.9008 86.0417 74.2432C85.462 74.5857 84.5346 74.9966 83.7231 75.4303C81.9535 76.5238 80.2574 77.7286 78.6454 79.0373L81.9377 82.2562C83.9787 80.5441 85.7867 78.5798 87.3169 76.4119C88.0604 75.3883 88.7268 74.3124 89.3108 73.193C89.6417 72.5867 89.9359 71.9616 90.1919 71.3211C90.3054 71.0544 90.3984 70.7796 90.4701 70.4992C90.4701 70.3394 90.4702 70.2025 90.5861 70.0427C90.5235 70.1288 90.4692 70.2205 90.4238 70.3166L89.4036 70.9101H89.589C89.883 70.8309 90.1582 70.6953 90.3989 70.5112C90.6396 70.3272 90.8411 70.0982 90.9919 69.8374C91.1426 69.5766 91.2396 69.2891 91.2774 68.9913C91.3152 68.6936 91.293 68.3915 91.2121 68.1022C91.1316 67.8127 90.994 67.5418 90.807 67.3048C90.6201 67.0678 90.3876 66.8694 90.1227 66.721C89.8578 66.5725 89.5658 66.477 89.2634 66.4398C88.961 66.4026 88.6541 66.4244 88.3603 66.5041C87.9419 66.632 87.5539 66.8414 87.2194 67.1198C86.8848 67.3983 86.6104 67.7401 86.4126 68.1249C86.1879 68.7081 85.9945 69.3025 85.8329 69.9056C85.3142 71.0982 84.6774 72.2376 83.9317 73.3072C82.4664 75.4837 80.6855 77.4373 78.6454 79.1058C78.2136 79.5335 77.9712 80.1122 77.9712 80.7153C77.9712 81.3184 78.2136 81.897 78.6454 82.3247C78.8609 82.5387 79.1174 82.7085 79.4 82.8244C79.6825 82.9403 79.9856 83 80.2916 83C80.5977 83 80.9008 82.9403 81.1833 82.8244C81.4659 82.7085 81.7222 82.5387 81.9377 82.3247C83.4978 81.0596 85.1657 79.9293 86.9227 78.946C88.7637 78.2326 90.3073 76.93 91.3049 75.2477C91.8766 73.4545 92.3181 71.6235 92.6264 69.7686C92.896 68.6396 92.9588 67.4723 92.8119 66.3215C92.7189 65.1438 92.7189 63.9607 92.8119 62.7829C92.8119 62.1775 92.5676 61.5968 92.1328 61.1687C91.6979 60.7406 91.1082 60.5 90.4933 60.5C89.8784 60.5 89.2887 60.7406 88.8539 61.1687C88.419 61.5968 88.1747 62.1775 88.1747 62.7829L88.2444 62.7144Z" fill="#1770FF"/>
<path d="M67.541 86.3289L63.4389 90.1843C62.4514 91.2845 61.1623 92.077 59.7283 92.4656C58.1291 92.6404 56.5109 92.5166 54.9578 92.1006C54.08 91.9424 53.2168 91.7136 52.3767 91.4162C51.4929 91.0217 50.5518 90.7677 49.5881 90.6634V95.2261C52.2845 95.0435 54.9809 95.4314 57.6773 95.2261C60.415 94.8405 63.03 93.8503 65.3287 92.3288C65.8303 92.0131 66.1894 91.5178 66.3308 90.9463C66.4722 90.3748 66.385 89.7713 66.0876 89.2619C65.7901 88.7524 65.3053 88.3765 64.7344 88.2125C64.1635 88.0486 63.5508 88.1094 63.0241 88.3821C61.2263 89.6127 59.1549 90.3953 56.986 90.6634C54.52 90.8459 52.054 90.5266 49.6111 90.6634C48.9999 90.6634 48.4137 90.9038 47.9815 91.3316C47.5493 91.7594 47.3065 92.3397 47.3065 92.9447C47.3065 93.5498 47.5493 94.13 47.9815 94.5578C48.4137 94.9857 48.9999 95.2261 49.6111 95.2261C50.4041 95.4456 51.1755 95.7357 51.9157 96.0929C52.8375 96.3438 53.7824 96.5264 54.7273 96.686C56.8667 97.1651 59.0871 97.1651 61.2264 96.686C63.0883 96.1182 64.7816 95.1078 66.1583 93.7431C67.7255 92.3516 69.2004 90.8916 70.7676 89.4544C72.9339 87.424 69.6613 84.2073 67.518 86.2377L67.541 86.3289Z" fill="#1770FF"/>
<path d="M36.6697 88.3716C35.5966 88.1447 34.502 88.0304 33.4043 88.0306C32.4715 88.0987 31.5349 88.0987 30.6021 88.0306L29.722 87.8486C29.2731 87.7513 28.8319 87.6221 28.4019 87.4622C27.6462 87.172 26.9305 86.79 26.2714 86.3253C25.8289 86.0738 25.314 85.973 24.8071 86.0388C24.3002 86.1046 23.8297 86.3333 23.4691 86.6891C23.144 87.0377 22.9009 87.452 22.7569 87.903C22.6128 88.3539 22.5713 88.8304 22.6354 89.2988C22.6994 89.7672 22.8675 90.216 23.1276 90.6137C23.3877 91.0113 23.7335 91.3481 24.1407 91.6001C24.67 91.872 25.2858 91.9326 25.8595 91.7692C26.4331 91.6058 26.9203 91.2311 27.2192 90.7234C27.5181 90.2157 27.6057 89.6142 27.4636 89.0446C27.3215 88.475 26.9607 87.9814 26.4566 87.6668C25.8081 87.1893 26.5955 87.7804 26.225 87.4848C26.0544 87.3672 25.8989 87.2298 25.7619 87.0756L25.3218 86.6436C25.206 86.5299 25.206 86.5299 25.3218 86.6436L25.1829 86.439C24.8322 85.7155 24.5754 84.9516 24.4186 84.1653C23.9916 82.3372 22.9059 80.7222 21.3616 79.618C20.8751 79.345 20.3042 79.2545 19.7549 79.3632C19.2055 79.4719 18.715 79.7725 18.3742 80.2092C18.031 80.6415 17.8584 81.1809 17.8882 81.7281C17.918 82.2754 18.1481 82.7938 18.5363 83.1877C19.8324 84.8398 21.2906 86.3629 22.8901 87.735C23.6199 88.204 24.3958 88.6001 25.206 88.9173L26.4798 89.4857L27.0356 89.7813C27.0356 89.7813 27.6146 90.145 27.4061 89.9859C27.84 90.4093 28.427 90.6471 29.0388 90.6471C29.6506 90.6471 30.2376 90.4093 30.6715 89.9859C30.8886 89.7745 31.0608 89.5231 31.1784 89.246C31.296 88.9689 31.3566 88.6718 31.3566 88.3716C31.3566 88.0715 31.296 87.7743 31.1784 87.4972C31.0608 87.2201 30.8886 86.9687 30.6715 86.7573C29.8908 86.1467 29.0349 85.6349 28.124 85.234C27.3264 84.8989 26.5527 84.5115 25.8082 84.0744C25.188 83.5881 24.6213 83.0394 24.1175 82.4373C23.3996 81.6416 22.7049 80.8458 21.9869 80.1637L19.1847 83.7333C18.9068 83.5514 19.1847 83.7333 19.3237 83.8698C19.4626 84.0062 19.4395 83.9834 19.3237 83.8698L19.4626 84.0517L19.7405 84.5519C19.7405 84.6883 19.7405 84.6883 19.7405 84.5519V84.7792C19.9953 85.5977 20.2037 86.439 20.4816 87.2348C21.2335 89.0957 22.5517 90.6836 24.2565 91.7821L26.5724 87.8486C26.7746 87.955 26.9474 88.1081 27.0759 88.2947C27.2043 88.4812 27.2846 88.6958 27.3097 88.9196C27.3347 89.1435 27.3039 89.37 27.2198 89.5795C27.1358 89.7891 27.001 89.9753 26.8271 90.1223L24.0249 90.4861C25.6799 91.5919 27.5611 92.3291 29.5368 92.6461C30.5842 92.8238 31.6469 92.9 32.7095 92.8735C33.6534 92.8026 34.6027 92.8484 35.5349 93.0099C36.1276 93.1697 36.7607 93.0917 37.2949 92.7932C37.8291 92.4948 38.2207 92.0002 38.3834 91.4183C38.5462 90.8364 38.4669 90.2148 38.1629 89.6904C37.8588 89.1659 37.3551 88.7815 36.7624 88.6217L36.6697 88.3716Z" fill="#1770FF"/>
<path d="M11.8417 66.0926C12.1854 66.3656 11.4064 65.5694 11.6585 65.9106C11.4752 65.6604 11.2919 65.3646 11.1315 65.0916C10.7325 64.437 10.2639 63.8268 9.73382 63.2715C8.79443 62.3159 7.90087 61.8154 7.44263 60.5869C7.29308 60.154 7.2082 59.7018 7.19063 59.2446C7.20274 58.6479 7.27177 58.0536 7.39683 57.4699L7.87796 54.99L8.08416 53.8752L8.2217 53.3975C8.2217 53.5567 8.2217 53.5112 8.2217 53.261L4.02879 51.5091C3.76163 52.4101 3.63041 53.3455 3.63933 54.2847C3.63933 55.2175 3.96002 56.1731 4.14332 57.1059L5.17438 62.225C5.33541 62.8072 5.7228 63.3021 6.25131 63.6008C6.77982 63.8995 7.40617 63.9774 7.99256 63.8175C8.57896 63.6576 9.07735 63.2729 9.37813 62.7481C9.6789 62.2233 9.75738 61.6014 9.59635 61.0191L8.67989 56.4689L8.26749 54.353C8.20891 53.7927 8.27136 53.2265 8.45076 52.6922C8.58373 52.1658 8.52285 51.6095 8.27903 51.1237C8.03521 50.638 7.62457 50.2548 7.1212 50.0433C6.61784 49.8318 6.05491 49.8061 5.53406 49.9705C5.0132 50.135 4.56873 50.4789 4.28085 50.9403C3.4986 52.6671 3.01817 54.5137 2.86026 56.4006C2.38874 58.2781 2.46028 60.2495 3.06653 62.0885C3.77183 63.7128 4.85545 65.1475 6.22831 66.2747C6.39249 66.4227 6.54567 66.5824 6.68657 66.7524C6.9386 67.0482 6.45747 66.3657 6.84697 66.9572C7.23647 67.5487 7.23642 67.5715 7.44263 67.8672C7.97273 68.7001 8.65687 69.4257 9.45889 70.0058C9.71902 70.1572 10.0067 70.2561 10.3054 70.2969C10.6041 70.3376 10.908 70.3195 11.1996 70.2434C11.4912 70.1673 11.7648 70.0347 12.0047 69.8534C12.2447 69.6721 12.4462 69.4456 12.5978 69.1868C12.7502 68.9285 12.8499 68.6428 12.8909 68.3462C12.932 68.0496 12.9136 67.7479 12.837 67.4583C12.7604 67.1688 12.627 66.8971 12.4444 66.6588C12.2618 66.4206 12.0336 66.2204 11.773 66.0699L11.8417 66.0926Z" fill="#1770FF"/>
</svg>
